<?xml version="1.0" encoding="UTF-8" standalone="no"?>
<!-- Created with Inkscape (http://www.inkscape.org/) -->

<svg
   sodipodi:docname="Calavera2.svg"
   inkscape:version="1.3 (0e150ed6c4, 2023-07-21)"
   id="svg8"
   version="1.1"
   viewBox="0 0 40 60"
   height="60mm"
   width="40mm"
   inkscape:export-filename="C:\Users\Joel\Desktop\Edge.png"
   inkscape:export-xdpi="601.133"
   inkscape:export-ydpi="601.133"
   xmlns:inkscape="http://www.inkscape.org/namespaces/inkscape"
   xmlns:sodipodi="http://sodipodi.sourceforge.net/DTD/sodipodi-0.dtd"
   xmlns="http://www.w3.org/2000/svg"
   xmlns:svg="http://www.w3.org/2000/svg"
   xmlns:rdf="http://www.w3.org/1999/02/22-rdf-syntax-ns#"
   xmlns:cc="http://creativecommons.org/ns#"
   xmlns:dc="http://purl.org/dc/elements/1.1/">
  <defs
     id="defs2">
    <linearGradient
       id="BG"
       inkscape:swatch="solid">
      <stop
         style="stop-color:#0b0b0b;stop-opacity:1;"
         offset="0"
         id="stop6243" />
    </linearGradient>
    <linearGradient
       id="linearGradient6173"
       inkscape:swatch="solid">
      <stop
         style="stop-color:#2b1308;stop-opacity:1;"
         offset="0"
         id="stop6171" />
    </linearGradient>
    <linearGradient
       id="linearGradient5785"
       inkscape:swatch="solid">
      <stop
         style="stop-color:#00afde;stop-opacity:1;"
         offset="0"
         id="stop5783" />
    </linearGradient>
    <linearGradient
       id="linearGradient5341"
       inkscape:swatch="solid">
      <stop
         style="stop-color:#ff5a32;stop-opacity:1;"
         offset="0"
         id="stop5339" />
    </linearGradient>
    <linearGradient
       id="linearGradient4897"
       inkscape:swatch="solid">
      <stop
         style="stop-color:#000000;stop-opacity:1;"
         offset="0"
         id="stop4895" />
    </linearGradient>
    <linearGradient
       id="White"
       inkscape:swatch="solid">
      <stop
         style="stop-color:#ffffff;stop-opacity:1;"
         offset="0"
         id="stop2148" />
    </linearGradient>
    <linearGradient
       id="Gold"
       gradientTransform="matrix(0,0,0,0,-5.2149581,-328.6754)"
       inkscape:swatch="solid">
      <stop
         style="stop-color:#ffff37;stop-opacity:1;"
         offset="0"
         id="stop2104" />
    </linearGradient>
  </defs>
  <sodipodi:namedview
     id="base"
     pagecolor="#000000"
     bordercolor="#666666"
     borderopacity="1.0"
     inkscape:pageopacity="0.0"
     inkscape:pageshadow="2"
     inkscape:zoom="2.8284271"
     inkscape:cx="31.466252"
     inkscape:cy="121.44559"
     inkscape:document-units="mm"
     inkscape:current-layer="svg8"
     showgrid="true"
     inkscape:window-width="1350"
     inkscape:window-height="1041"
     inkscape:window-x="2154"
     inkscape:window-y="0"
     inkscape:window-maximized="0"
     borderlayer="true"
     inkscape:snap-global="false"
     inkscape:showpageshadow="2"
     inkscape:pagecheckerboard="0"
     inkscape:deskcolor="#d1d1d1">
    <inkscape:grid
       spacingx="2.54"
       spacingy="2.54"
       empspacing="1"
       type="xygrid"
       units="mm"
       id="grid6496"
       originx="-7.180717e-07"
       originy="-7.180717e-07"
       visible="true" />
    <inkscape:grid
       id="grid4930"
       units="mm"
       type="xygrid"
       empspacing="1"
       spacingy="2.54"
       spacingx="2.54"
       originx="-7.180717e-07"
       originy="-7.180717e-07"
       visible="true" />
    <inkscape:grid
       spacingx="2.54"
       spacingy="2.54"
       empspacing="1"
       type="xygrid"
       units="mm"
       id="grid1702"
       originx="-7.180717e-07"
       originy="-7.180717e-07"
       visible="true" />
  </sodipodi:namedview>
  <metadata
     id="metadata5">
    <rdf:RDF>
      <cc:Work
         rdf:about="">
        <dc:format>image/svg+xml</dc:format>
        <dc:type
           rdf:resource="http://purl.org/dc/dcmitype/StillImage" />
      </cc:Work>
    </rdf:RDF>
  </metadata>
  <g
     id="g6963"
     inkscape:groupmode="layer"
     inkscape:label="F.Cu"
     style="display:none">
    <path
       style="display:inline;fill:#c90000;fill-opacity:1;fill-rule:nonzero;stroke:none;stroke-width:0.352778"
       d="m 19.576497,29.220186 -0.07169,0.0155 -0.06953,0.0246 -0.06653,0.0334 -0.0627,0.0421 -0.05804,0.0505 -0.05254,0.0587 -0.0462,0.0668 -0.05538,0.11522 -0.03202,0.1208 -0.0094,0.123 0.0125,0.12176 0.03366,0.11712 0.05409,0.10906 0.07379,0.0976 0.09276,0.0827 -3.97e-4,6.3e-4 -3.97e-4,6.19e-4 -3.97e-4,6.29e-4 -3.96e-4,6.2e-4 -3.97e-4,6.29e-4 -3.97e-4,6.19e-4 -3.97e-4,6.3e-4 -3.97e-4,6.19e-4 -0.108458,-0.0537 -0.113063,-0.0297 -0.114533,-0.006 -0.112871,0.0164 -0.108075,0.0384 -0.100149,0.0598 -0.08909,0.0804 -0.0749,0.10045 -0.05104,0.10351 -0.03202,0.10836 -0.01352,0.1107 0.0044,0.11054 0.02187,0.10789 0.03876,0.10273 0.05512,0.0951 0.07095,0.0849 -0.101529,-0.03319 -0.103723,-0.0138 -0.1035,0.005 -0.100938,0.0236 -0.09603,0.0414 -0.08878,0.0588 -0.0792,0.0756 -0.06727,0.0919 -0.05424,0.112 -0.03201,0.11733 -0.01048,0.11952 0.01035,0.1186 0.03048,0.11456 0.04991,0.1074 0.06865,0.0971 0.08668,0.0837 -7.11e-4,10e-4 -7.12e-4,10e-4 -7.12e-4,0.001 -7.12e-4,10e-4 -7.11e-4,10e-4 -7.12e-4,0.001 -7.12e-4,10e-4 -7.11e-4,10e-4 -0.105544,-0.05324 -0.110269,-0.0303 -0.112031,-0.008 -0.110832,0.0138 -0.106674,0.0351 -0.09955,0.0559 -0.08947,0.0762 -0.07643,0.0959 -0.05788,0.11006 -0.03583,0.11621 -0.01437,0.11919 0.0065,0.11903 0.02679,0.11572 0.04649,0.10924 0.0656,0.0996 0.08413,0.0868 -0.0012,0.002 -0.0012,0.002 -0.0012,0.002 -0.0012,0.002 -0.0012,0.002 -0.0012,0.002 -0.0012,0.002 -0.0012,0.002 -0.107031,-0.0594 -0.112637,-0.0351 -0.115025,-0.0114 -0.114195,0.0117 -0.110148,0.0342 -0.102883,0.0562 -0.0924,0.0775 -0.0787,0.0983 -0.05854,0.11167 -0.03589,0.11798 -0.01385,0.121 0.0076,0.1207 0.0284,0.11712 0.04862,0.11022 0.06822,0.10001 0.08722,0.0865 -0.0013,0.002 -0.0013,0.002 -0.0013,0.002 -0.0013,0.002 -0.0013,0.002 -0.0013,0.002 -0.0013,0.002 -0.0013,0.002 -0.11565,-0.0423 -0.117622,-0.0168 -0.116426,0.007 -0.112063,0.0306 -0.104534,0.0525 -0.09384,0.0733 -0.07997,0.0929 -0.06295,0.11134 -0.04085,0.12216 -0.01685,0.124621 0.006,0.12373 0.02772,0.11953 0.04828,0.111989 0.06771,0.1011 0.08599,0.0869 0.103124,0.0693 -0.0014,0.005 -0.0015,0.005 -0.0015,0.005 -0.0015,0.005 -0.0015,0.005 -0.0015,0.005 -0.0015,0.005 -0.0014,0.005 2e-4,-0.002 2e-4,-0.002 2e-4,-0.002 2e-4,-0.002 2e-4,-0.002 2e-4,-0.002 2e-4,-0.002 2e-4,-0.002 -0.124002,-0.0031 -0.118049,0.02257 -0.109379,0.04558 -0.09802,0.0667 -0.08396,0.0854 -0.06719,0.10179 -0.04772,0.115934 -0.02554,0.127839 -0.0012,0.12636 0.02126,0.12081 0.04174,0.11273 0.06024,0.10209 0.07676,0.0889 0.09131,0.0732 0.103886,0.0549 0.114488,0.0341 4.3e-5,0.002 5e-6,10e-4 -2e-5,0.001 -3.3e-5,10e-4 -3.2e-5,10e-4 -1.9e-5,0.001 8e-6,10e-4 4.8e-5,10e-4 -0.111999,0.049 -0.09751,0.069 -0.08142,0.086 -0.06372,0.10003 -0.04442,0.11104 -0.02352,0.11907 -10e-4,0.12411 0.0231,0.12615 0.04732,0.12134 0.06733,0.10629 0.08426,0.0894 0.09811,0.0708 0.108883,0.0503 0.116571,0.028 0.121177,0.004 0.122701,-0.022 -5.87e-4,-0.002 -5.88e-4,-0.002 -5.87e-4,-0.002 -5.88e-4,-0.002 -5.87e-4,-0.002 -5.87e-4,-0.002 -5.88e-4,-0.002 -5.87e-4,-0.002 0.0029,0.005 0.0028,0.005 0.0028,0.005 0.0028,0.005 0.0028,0.005 0.0028,0.005 0.0029,0.005 0.003,0.005 -0.06065,0.110071 -0.03758,0.116779 -0.01495,0.12007 0.0072,0.119981 0.02897,0.11649 0.05026,0.10961 0.07111,0.0993 0.09151,0.0856 0.107976,0.0665 0.115125,0.0418 0.118788,0.0176 0.118963,-0.006 0.115648,-0.0291 0.108846,-0.0517 0.09856,-0.0738 0.08478,-0.0953 -3.25e-4,-2.51e-4 -3.26e-4,-2.5e-4 -3.25e-4,-2.5e-4 -3.26e-4,-2.5e-4 -3.25e-4,-2.49e-4 -3.26e-4,-2.5e-4 -3.25e-4,-2.5e-4 -3.26e-4,-2.5e-4 0.0071,0.002 0.007,0.002 0.007,0.003 0.007,0.003 0.007,0.003 0.007,0.002 0.0071,0.002 0.0071,0.002 0.01458,0.12573 0.0381,0.11689 0.05923,0.10561 0.07797,0.0919 0.09432,0.0757 0.108269,0.0571 0.119833,0.0361 0.129004,0.0126 0.127839,-0.0122 0.11962,-0.0352 0.10904,-0.0558 0.0961,-0.074 0.0808,-0.0899 0.06315,-0.103461 0.04313,-0.11464 0.02075,-0.123479 0.01334,-0.003 0.01328,-0.003 0.01324,-0.003 0.01321,-0.003 0.0132,-0.003 0.0132,-0.003 0.01322,-0.003 0.01325,-0.003 0.05879,0.10512 0.07531,0.0891 0.08911,0.0718 0.100201,0.0532 0.108576,0.0332 0.114238,0.012 0.117186,-0.0106 0.117421,-0.0344 0.111547,-0.0579 0.09628,-0.0764 0.07967,-0.0918 0.06174,-0.10414 0.04247,-0.1134 0.02186,-0.11959 -7e-5,-0.12273 -0.02334,-0.12278 0.01184,-0.007 0.01185,-0.007 0.01185,-0.007 0.01185,-0.007 0.01184,-0.007 0.01181,-0.007 0.01178,-0.007 0.01175,-0.007 0.01187,0.008 0.01187,0.008 0.01188,0.007 0.01188,0.007 0.01189,0.007 0.01189,0.007 0.0119,0.007 0.0119,0.007 -0.0229,0.12254 2.38e-4,0.12245 0.02206,0.11928 0.04255,0.11309 0.06173,0.103831 0.07958,0.0915 0.09611,0.0762 0.111318,0.0578 0.116893,0.0343 0.116691,0.0107 0.113806,-0.0117 0.108241,-0.0327 0.09999,-0.0525 0.08906,-0.071 0.07545,-0.0882 0.05915,-0.104091 0.01349,0.003 0.01347,0.004 0.01347,0.004 0.01347,0.004 0.01348,0.004 0.0135,0.003 0.01354,0.003 0.01358,0.003 0.02147,0.12264 0.04355,0.11381 0.0633,0.10268 0.08074,0.0892 0.09585,0.0734 0.108639,0.0553 0.119108,0.0349 0.127255,0.0121 0.128157,-0.0124 0.119098,-0.0356 0.107702,-0.0564 0.09397,-0.0749 0.07791,-0.0909 0.0595,-0.10449 0.03876,-0.11569 0.01569,-0.12452 0.0076,-0.002 0.0076,-0.002 0.0076,-0.002 0.0076,-0.002 0.0076,-0.002 0.0076,-0.002 0.0076,-0.002 0.0076,-0.002 0.08506,0.0928 0.09828,0.0717 0.108138,0.0501 0.114621,0.0279 0.117731,0.005 0.11747,-0.0179 0.113834,-0.0416 0.106829,-0.0659 0.09068,-0.0847 0.07069,-0.0981 0.05026,-0.10825 0.02941,-0.11509 0.0081,-0.11865 -0.01358,-0.11891 -0.03572,-0.1159 -0.05829,-0.10958 0.0026,-0.004 0.0027,-0.004 0.0027,-0.004 0.0027,-0.004 0.0027,-0.004 0.0027,-0.004 0.0026,-0.004 0.0025,-0.004 0.121657,0.0202 0.119975,-0.005 0.115292,-0.0287 0.107608,-0.0505 0.09692,-0.0706 0.08323,-0.0889 0.06655,-0.10551 0.04686,-0.12034 0.023,-0.12528 -8.47e-4,-0.12325 -0.02311,-0.11829 -0.04378,-0.11043 -0.06286,-0.0996 -0.08036,-0.0859 -0.09626,-0.0693 -0.11058,-0.0497 1.11e-4,-0.002 1.29e-4,-0.002 1.39e-4,-0.002 1.43e-4,-0.002 1.41e-4,-0.002 1.31e-4,-0.002 1.16e-4,-0.002 9.1e-5,-0.002 0.113079,-0.0351 0.102577,-0.0555 0.09013,-0.0733 0.07575,-0.0887 0.05942,-0.10161 0.04114,-0.11202 0.02092,-0.11995 -0.0012,-0.1254 -0.02549,-0.12757 -0.04762,-0.11573 -0.06704,-0.10165 -0.08377,-0.0853 -0.0978,-0.0667 -0.109131,-0.0459 -0.117764,-0.0228 -0.123694,0.002 -9.79e-4,-0.003 -9.53e-4,-0.003 -9.52e-4,-0.003 -9.53e-4,-0.003 -9.79e-4,-0.003 -9.79e-4,-0.003 -9.78e-4,-0.003 -10e-4,-0.003 0.101859,-0.0697 0.0849,-0.0869 0.0668,-0.100859 0.04757,-0.11151 0.02721,-0.1189 0.0057,-0.123011 -0.01691,-0.123859 -0.04067,-0.12145 -0.06279,-0.111111 -0.07974,-0.0927 -0.09355,-0.0732 -0.104218,-0.0525 -0.111743,-0.0307 -0.116125,-0.008 -0.117362,0.0165 -0.115457,0.0418 -0.0014,-0.002 -0.0014,-0.002 -0.0015,-0.002 -0.0015,-0.002 -0.0015,-0.002 -0.0014,-0.002 -0.0014,-0.002 -0.0014,-0.002 0.08695,-0.0865 0.06798,-0.1 0.04841,-0.1101 0.02824,-0.11695 0.0075,-0.12052 -0.01392,-0.1208 -0.0359,-0.1178 -0.05849,-0.11152 -0.07866,-0.0983 -0.09234,-0.0775 -0.102803,-0.0562 -0.110062,-0.0342 -0.11411,-0.0117 -0.11495,0.0114 -0.112581,0.0351 -0.107003,0.0593 -0.0013,-0.002 -0.0013,-0.002 -0.0013,-0.002 -0.0013,-0.002 -0.0013,-0.002 -0.0013,-0.002 -0.0013,-0.002 -0.0013,-0.002 0.08415,-0.0868 0.06566,-0.0996 0.04658,-0.10925 0.02689,-0.115709 0.0066,-0.11904 -0.01429,-0.119191 -0.03577,-0.11621 -0.05786,-0.11006 -0.07677,-0.0963 -0.08994,-0.0763 -0.100095,-0.0559 -0.107246,-0.035 -0.111391,-0.0135 -0.11253,0.009 -0.110661,0.031 -0.105788,0.0541 -6.35e-4,-0.001 -6.35e-4,-10e-4 -6.35e-4,-9.79e-4 -6.35e-4,-9.53e-4 -6.61e-4,-9.52e-4 -6.62e-4,-9.79e-4 -6.61e-4,-10e-4 -6.61e-4,-10e-4 0.08755,-0.0836 0.06935,-0.0972 0.05046,-0.107659 0.03087,-0.11494 0.01062,-0.119164 -0.01035,-0.120224 -0.03207,-0.11678 -0.05443,-0.11247 -0.06735,-0.092 -0.07926,-0.0756 -0.08884,-0.0587 -0.09608,-0.0413 -0.100988,-0.0234 -0.103555,-0.005 -0.103792,0.014 -0.101691,0.0335 0.07118,-0.0849 0.0553,-0.0951 0.03888,-0.10285 0.02194,-0.10805 0.0045,-0.11072 -0.01353,-0.11088 -0.03205,-0.10853 -0.05111,-0.10365 -0.07511,-0.10072 -0.08936,-0.0806 -0.100451,-0.0598 -0.108389,-0.0384 -0.113176,-0.0162 -0.114808,0.007 -0.11329,0.0301 -0.10862,0.0544 -3.17e-4,-4.21e-4 -3.18e-4,-4.89e-4 -3.17e-4,-5.29e-4 -3.18e-4,-5.61e-4 -3.17e-4,-5.61e-4 -3.44e-4,-5.29e-4 -3.44e-4,-4.9e-4 -3.44e-4,-4.21e-4 0.0934,-0.0826 0.07428,-0.0977 0.05444,-0.10928 0.03388,-0.11744 0.0126,-0.12214 -0.0094,-0.12341 -0.03211,-0.12122 -0.05554,-0.11557 -0.07525,-0.101 -0.08959,-0.0808 -0.10074,-0.0599 -0.108707,-0.0383 -0.113499,-0.016 -0.115109,0.007 -0.113547,0.0306 -0.108807,0.0549 -0.0022,-0.01 -0.0058,-0.006 -0.0082,-0.002 -0.0094,3.3e-4 -0.0094,0.002 -0.0082,0.004 -0.0058,0.005 -0.0023,0.005 -0.03856,-0.0227 -0.03941,-0.0196 -0.04011,-0.0164 -0.04067,-0.0133 -0.04547,-0.0139 -0.04868,-0.0133 -0.06936,-0.005 z"
       id="path40-9-8"
       inkscape:connector-curvature="0"
       sodipodi:nodetypes="cccccccccccccccccccccccccccccccccccccccccccccccccccccccccccccccccccccccccccccccccccccccccccccccccccccccccccccccccccccccccccccccccccccccccccccccccccccccccccccccccccccccccccccccccccccccccccccccccccccccccccccccccccccccccccccccccccccccccccccccccccccccccccccccccccccccccccccccccccccccccccccccccccccccccccccccccccccccccccccccccccccccccccccccccccccccccccccccccccccccccccccccccccccccccccccccccccccccccccccccccccccccccccccccccccccccccccccccccccccccccccccccccccccccccccccccccccccccccccccccccccccccccccccccccccccccccccccccccccccccccccccccccccccccccccccccccccccccc" />
    <rect
       style="display:inline;mix-blend-mode:normal;fill:none;stroke:#dc0000;stroke-width:0.0997921;stroke-dasharray:none;stroke-opacity:1"
       id="rect1-1"
       width="39.900208"
       height="59.900208"
       x="0.04989624"
       y="0.04989624" />
  </g>
</svg>
