<?xml version="1.0" encoding="UTF-8" standalone="no"?>
<!-- Created with Inkscape (http://www.inkscape.org/) -->

<svg
   id="svg8"
   version="1.1"
   viewBox="0 0 40 60"
   height="60mm"
   width="40mm"
   xmlns="http://www.w3.org/2000/svg"
   xmlns:svg="http://www.w3.org/2000/svg"
   xmlns:rdf="http://www.w3.org/1999/02/22-rdf-syntax-ns#"
   xmlns:cc="http://creativecommons.org/ns#"
   xmlns:dc="http://purl.org/dc/elements/1.1/">
  <defs
     id="defs2">
    <linearGradient
       id="BG">
      <stop
         style="stop-color:#0b0b0b;stop-opacity:1;"
         offset="0"
         id="stop6243" />
    </linearGradient>
    <linearGradient
       id="linearGradient6173">
      <stop
         style="stop-color:#2b1308;stop-opacity:1;"
         offset="0"
         id="stop6171" />
    </linearGradient>
    <linearGradient
       id="linearGradient5785">
      <stop
         style="stop-color:#00afde;stop-opacity:1;"
         offset="0"
         id="stop5783" />
    </linearGradient>
    <linearGradient
       id="linearGradient5341">
      <stop
         style="stop-color:#ff5a32;stop-opacity:1;"
         offset="0"
         id="stop5339" />
    </linearGradient>
    <linearGradient
       id="linearGradient4897">
      <stop
         style="stop-color:#000000;stop-opacity:1;"
         offset="0"
         id="stop4895" />
    </linearGradient>
    <linearGradient
       id="White">
      <stop
         style="stop-color:#ffffff;stop-opacity:1;"
         offset="0"
         id="stop2148" />
    </linearGradient>
    <linearGradient
       id="Gold"
       gradientTransform="matrix(0,0,0,0,-5.2149581,-328.6754)">
      <stop
         style="stop-color:#ffff37;stop-opacity:1;"
         offset="0"
         id="stop2104" />
    </linearGradient>
  </defs>
  <metadata
     id="metadata5">
    <rdf:RDF>
      <cc:Work
         rdf:about="">
        <dc:format>image/svg+xml</dc:format>
        <dc:type
           rdf:resource="http://purl.org/dc/dcmitype/StillImage" />
      </cc:Work>
    </rdf:RDF>
  </metadata>
  <g
     id="g6959"
     style="display:none">
    <path
       style="display:inline;opacity:0.99;fill:#000000;fill-opacity:1;fill-rule:nonzero;stroke:none;stroke-width:0.264583;stroke-miterlimit:4;stroke-dasharray:none;stroke-opacity:1"
       d="m 19.999812,0.39739188 -0.95188,0.0263549 -0.948263,0.0707967 -0.943611,0.11317139 -0.93586,0.1550293 L 15.293122,0.95859784 14.376899,1.1942424 13.473595,1.4696778 12.585277,1.7828369 11.71453,2.1363038 10.862385,2.5269776 10.031945,2.9548585 9.2252764,3.4204631 8.4475459,3.9253421 7.6977209,4.4658774 6.9799352,5.0400026 6.2957394,5.6472007 5.6456499,6.2848878 5.0389685,6.9556478 4.4767289,7.6558636 3.9594479,8.3819176 3.4881588,9.1301921 3.0638952,9.8965537 2.6866574,10.676868 2.3579953,11.468034 2.075842,12.265918 l -0.2356446,0.800468 -0.1932698,0.799951 -0.1519287,0.798918 -0.1157552,0.777213 -0.054777,0.383956 -0.037207,0.388607 -0.072347,0.765845 -0.031006,0.750342 -0.014469,0.369486 0.0031,0.365869 0.010335,0.719336 0.044959,0.700733 0.024288,0.344165 0.038757,0.337447 0.079065,0.661975 0.096118,0.639754 0.2129069,1.217497 0.214974,1.134814 0.1901693,1.055233 0.1529622,0.974618 0.1069702,0.892452 0.041858,0.413412 0.024805,0.391708 0.024805,0.367418 0.011369,0.175184 0.00362,0.168981 0.00982,0.613916 0.00465,0.268718 -0.00723,0.242361 -0.027388,0.746726 -0.1617473,0.31006 -0.1834513,0.316775 -0.1999878,0.305924 -0.2242757,0.30489 -0.5074627,0.639239 -0.25579831,0.354499 -0.24081216,0.391192 -0.10697022,0.218075 -0.0868164,0.239779 -0.054777,0.263548 -0.008795,0.27337 0.028422,0.257347 0.0392741,0.234096 0.0397908,0.234093 0.0496094,0.243914 0.12247314,0.478007 0.15089521,0.47232 0.17414954,0.466641 0.1953369,0.46147 0.2175578,0.453202 0.2408122,0.444418 0.2697509,0.428914 0.2971395,0.411345 0.3312459,0.387056 0.3720703,0.355534 0.2139406,0.160713 0.2377117,0.133326 0.2552814,0.09922 0.2661338,0.05788 0.2676837,0.01654 0.2599325,-0.01963 0.2459799,-0.04548 0.2216918,-0.05374 0.5126302,-0.09715 0.5064291,-0.04393 0.1136881,0.230478 0.144694,0.323493 0.1576133,0.396359 0.1638141,0.467672 0.1632977,0.537951 0.1514118,0.607716 0.1286743,0.67541 0.096635,0.73949 0.05271,0.799435 0.00672,0.42013 -0.00775,0.433048 -0.02377,0.444934 -0.040307,0.455785 -0.057361,0.465606 -0.074931,0.473874 -0.094051,0.482139 -0.1136883,0.488342 -0.1338419,0.494027 -0.072347,0.249082 -0.081649,0.248562 -0.082682,0.251148 -0.042375,0.137459 -0.03669,0.149344 -0.043925,0.303858 -0.00878,0.302308 0.022738,0.301273 0.047542,0.296624 0.07028,0.291971 0.088367,0.286287 0.1043866,0.281638 0.1183389,0.27595 0.2733682,0.536403 0.3152265,0.517282 0.3477823,0.500226 0.3777547,0.483174 0.4056599,0.466122 0.4314984,0.449069 0.4547526,0.432531 0.4764566,0.414962 0.4950604,0.397909 0.51418,0.380339 0.531234,0.362251 0.548287,0.343649 0.564307,0.324011 0.578776,0.30334 0.592728,0.281636 0.606165,0.257865 0.618567,0.233061 0.629419,0.209291 0.638721,0.183967 0.647505,0.158131 0.654741,0.131257 0.660941,0.10232 0.665076,0.0739 0.66921,0.04547 0.674377,0.01704 0.665076,-0.01704 0.669726,-0.04547 0.665593,-0.0739 0.660941,-0.10232 0.654741,-0.131257 0.647506,-0.158131 0.638718,-0.183972 0.629419,-0.209291 0.619084,-0.233061 0.606165,-0.257866 0.592727,-0.281635 0.578776,-0.30334 0.56379,-0.324011 0.548285,-0.343133 0.531752,-0.362768 0.514181,-0.380338 0.495059,-0.39791 0.47594,-0.415478 0.454753,-0.432014 0.431498,-0.449069 0.40566,-0.466122 0.378272,-0.483174 0.347265,-0.500227 0.315228,-0.517281 0.273367,-0.536403 0.11834,-0.27595 0.104386,-0.281638 0.08888,-0.286288 0.06976,-0.29197 0.04806,-0.296624 0.02222,-0.301273 -0.0088,-0.302308 -0.04289,-0.300757 -0.03566,-0.147278 -0.04289,-0.138493 -0.08371,-0.254765 -0.0832,-0.252696 -0.07183,-0.248046 -0.133324,-0.491445 -0.113689,-0.488342 -0.09353,-0.481624 -0.07545,-0.47439 -0.05736,-0.465605 -0.03979,-0.455269 -0.02376,-0.444934 -0.0083,-0.433565 0.0067,-0.420129 0.05323,-0.799436 0.09612,-0.739489 0.129191,-0.67541 0.150894,-0.607716 0.163298,-0.537951 0.164331,-0.467672 0.157614,-0.395841 0.144177,-0.324011 0.114205,-0.230478 0.505912,0.04393 0.513147,0.09715 0.221175,0.05374 0.246497,0.04548 0.259932,0.02016 0.267684,-0.01704 0.266134,-0.05788 0.254764,-0.09922 0.237713,-0.133326 0.214455,-0.160713 0.37207,-0.355534 0.331248,-0.387056 0.297138,-0.411345 0.269234,-0.428914 0.240814,-0.443902 0.217556,-0.453718 0.195855,-0.46147 0.173633,-0.46664 0.15141,-0.471805 0.121957,-0.478523 0.05013,-0.243914 0.03927,-0.234093 0.03979,-0.233577 0.02842,-0.257865 -0.0088,-0.27337 -0.05478,-0.263549 -0.08682,-0.239779 -0.107487,-0.217559 -0.240813,-0.391189 -0.255799,-0.355018 -0.506944,-0.63872 -0.224277,-0.304893 -0.199988,-0.30644 -0.183451,-0.316259 -0.161748,-0.310576 -0.02739,-0.747757 -0.0078,-0.24288 0.0047,-0.268719 0.01035,-0.612881 0.0031,-0.168465 0.01188,-0.174667 0.02429,-0.367935 0.02479,-0.391192 0.04186,-0.413411 0.106971,-0.892452 0.152961,-0.975135 0.190169,-1.055232 0.214974,-1.134298 0.212908,-1.217497 0.09612,-0.640271 0.07906,-0.661975 0.03876,-0.337447 0.02429,-0.344165 0.04496,-0.700733 0.01085,-0.719335 0.0026,-0.36587 -0.01447,-0.369486 -0.03101,-0.750342 -0.07183,-0.761711 -0.03669,-0.386539 -0.05581,-0.387057 L 38.50419,14.661142 38.353296,13.869459 38.160544,13.068991 37.923864,12.266456 37.641713,11.468055 37.31305,10.677406 36.936329,9.8965749 36.511548,9.1302133 36.040259,8.3819388 35.52298,7.6558848 34.960741,6.955669 34.354059,6.284909 33.704486,5.6477386 33.020289,5.0400237 32.301988,4.4658985 31.55268,3.92588 30.774432,3.4204843 29.967762,2.9548798 29.137238,2.5269777 28.28561,2.1363039 27.414345,1.782837 26.526029,1.4696779 25.622725,1.1942425 24.706501,0.95859795 23.779943,0.76274426 22.843566,0.60771497 21.900471,0.49454357 20.951692,0.42426362 Z m -0.01344,0.49919435 h 0.02739 l 0.912089,0.0273885 0.925525,0.0682129 0.921907,0.11110437 0.912089,0.1503784 0.906405,0.1937866 0.896586,0.2304769 0.880566,0.2671672 0.867647,0.306958 0.849559,0.3436482 0.831993,0.3829223 0.808217,0.4159954 0.785482,0.4532024 0.757576,0.4919596 0.730705,0.5255493 0.697117,0.5586222 0.666109,0.5916951 0.628902,0.6170166 0.588078,0.6464723 0.542603,0.6800617 0.502293,0.7027995 0.454752,0.7229533 0.410313,0.742074 0.365353,0.756026 0.318325,0.765328 0.273368,0.771529 0.228409,0.777213 0.187587,0.777731 0.146243,0.769462 0.11524,0.773079 0.05271,0.373104 0.03721,0.375171 0.07028,0.747758 0.03152,0.736389 0.01344,0.359668 -0.0021,0.3514 -0.01138,0.705383 -0.04496,0.687297 -0.0217,0.331763 -0.03876,0.324527 -0.07855,0.654224 -0.09354,0.626835 -0.210839,1.207162 -0.214974,1.13068 a 0.50076235,0.50076235 0 0 0 0,0.0062 l -0.189137,1.054716 a 0.50076235,0.50076235 0 0 0 -0.0021,0.0093 l -0.152445,0.974618 a 0.50076235,0.50076235 0 0 0 -0.0041,0.01757 l -0.106968,0.892968 a 0.50076235,0.50076235 0 0 0 0,0.0098 l -0.04341,0.41393 a 0.50076235,0.50076235 0 0 0 -0.0016,0.02119 l -0.02376,0.389122 -0.02532,0.364834 a 0.50076235,0.50076235 0 0 0 0,0.0021 l -0.01188,0.173633 a 0.50076235,0.50076235 0 0 0 0,0.0217 l -0.0036,0.167947 a 0.50076235,0.50076235 0 0 0 0,0.0041 l -0.0098,0.612884 -0.0041,0.26975 a 0.50076235,0.50076235 0 0 0 0,0.02326 l 0.0083,0.242361 a 0.50076235,0.50076235 0 0 0 0,0.0021 l 0.02687,0.74776 a 0.50076235,0.50076235 0 0 0 0.05478,0.212905 l 0.160197,0.310576 a 0.50076235,0.50076235 0 0 0 0.01188,0.0217 l 0.183451,0.316262 a 0.50076235,0.50076235 0 0 0 0.01551,0.02326 l 0.201538,0.306956 a 0.50076235,0.50076235 0 0 0 0.0155,0.02119 l 0.224793,0.30489 a 0.50076235,0.50076235 0 0 0 0.0093,0.01394 l 0.49816,0.630452 0.240295,0.332279 0.218591,0.353468 0.08423,0.170016 0.06615,0.181382 0.03721,0.185521 0.0062,0.195336 -0.0217,0.209289 -0.03721,0.21859 -0.03876,0.224793 -0.04496,0.224277 -0.115236,0.451135 -0.142629,0.447517 -0.165881,0.445452 -0.187584,0.439248 -0.207224,0.431499 -0.22841,0.422198 -0.25218,0.399976 -0.275436,0.380854 -0.300757,0.353984 -0.331764,0.316259 -0.16433,0.122991 -0.179316,0.101285 -0.18397,0.0708 -0.191201,0.04082 -0.195337,0.01344 -0.195336,-0.0155 -0.208775,-0.03876 -0.209288,-0.04909 a 0.50076235,0.50076235 0 0 0 -0.02326,-0.0057 l -0.513665,-0.09767 a 0.50076235,0.50076235 0 0 0 -0.04909,-0.0062 l -0.505913,-0.04496 a 0.50076235,0.50076235 0 0 0 -0.494024,0.27957 l -0.113173,0.232542 a 0.50076235,0.50076235 0 0 0 -0.0078,0.01344 l -0.144695,0.322461 a 0.50076235,0.50076235 0 0 0 -0.0078,0.01963 l -0.158128,0.396359 a 0.50076235,0.50076235 0 0 0 -0.0078,0.01963 l -0.16433,0.468704 a 0.50076235,0.50076235 0 0 0 -0.0057,0.02119 l -0.162264,0.537435 a 0.50076235,0.50076235 0 0 0 -0.0078,0.02326 l -0.152445,0.607197 a 0.50076235,0.50076235 0 0 0 -0.0057,0.02739 l -0.128675,0.675928 a 0.50076235,0.50076235 0 0 0 -0.0041,0.02945 l -0.0956,0.737941 a 0.50076235,0.50076235 0 0 0 -0.0041,0.03152 l -0.05271,0.800468 a 0.50076235,0.50076235 0 0 0 0,0.02376 l -0.0078,0.419613 a 0.50076235,0.50076235 0 0 0 0,0.0217 l 0.0098,0.433565 a 0.50076235,0.50076235 0 0 0 0,0.01394 l 0.02326,0.444933 a 0.50076235,0.50076235 0 0 0 0.0021,0.01757 l 0.03928,0.455271 a 0.50076235,0.50076235 0 0 0 0.0021,0.01963 l 0.05839,0.464569 a 0.50076235,0.50076235 0 0 0 0.0021,0.0155 l 0.0739,0.474906 a 0.50076235,0.50076235 0 0 0 0.0021,0.01757 l 0.09405,0.482139 a 0.50076235,0.50076235 0 0 0 0.0036,0.01757 l 0.113173,0.488342 a 0.50076235,0.50076235 0 0 0 0.0062,0.01757 l 0.132807,0.490408 a 0.50076235,0.50076235 0 0 0 0.0016,0.0098 l 0.07235,0.248047 a 0.50076235,0.50076235 0 0 0 0.0062,0.01757 l 0.08372,0.253731 0.08217,0.248046 0.03721,0.119372 0.02532,0.109038 0.03514,0.248047 0.0057,0.248047 -0.01757,0.254248 -0.04289,0.257866 -0.06046,0.257865 -0.0801,0.25735 -0.09405,0.257866 -0.106971,0.248047 -0.257866,0.505912 -0.29714,0.486275 -0.330211,0.476972 -0.363286,0.462505 -0.38654,0.447516 -0.415994,0.431499 -0.4377,0.415996 -0.462505,0.400492 -0.478523,0.386541 -0.49816,0.369485 -0.515731,0.349335 -0.533302,0.333827 -0.546735,0.314711 -0.562239,0.296622 -0.572575,0.271817 -0.586011,0.250116 -0.601514,0.224274 -0.609265,0.203089 -0.621151,0.177768 -0.626835,0.154512 -0.633036,0.127124 -0.640271,0.09922 -0.644922,0.07235 -0.646472,0.04289 -0.642338,0.01757 -0.650607,-0.01757 -0.648022,-0.04289 -0.642855,-0.07235 -0.640788,-0.09922 L 16.789277,58.744259 16.160375,58.589747 15.541291,58.411979 14.931509,58.20889 14.329995,57.984616 13.744502,57.7345 13.171927,57.462683 12.60762,57.166061 12.060883,56.85135 11.52965,56.517523 11.013919,56.168188 10.515758,55.798703 10.037235,55.412162 9.5742139,55.01167 9.1370312,54.595674 8.7210361,54.164175 8.3319124,53.716659 7.9727611,53.254154 7.6409985,52.777182 7.343859,52.290907 7.0859937,51.784995 l -0.107487,-0.248047 -0.093534,-0.257866 -0.082165,-0.25735 -0.060462,-0.257865 -0.040824,-0.257866 -0.019637,-0.254248 0.00775,-0.248047 0.03514,-0.249595 0.027388,-0.111622 0.037207,-0.118856 0.081649,-0.246497 0.082166,-0.249597 a 0.50076235,0.50076235 0 0 0 0.00414,-0.01603 l 0.072347,-0.248047 a 0.50076235,0.50076235 0 0 0 0.00156,-0.0093 l 0.1348732,-0.494534 a 0.50076235,0.50076235 0 0 0 0.00568,-0.01757 L 7.285473,47.753716 a 0.50076235,0.50076235 0 0 0 0.00362,-0.01757 l 0.094051,-0.48214 a 0.50076235,0.50076235 0 0 0 0.00156,-0.01757 L 7.459118,46.76153 a 0.50076235,0.50076235 0 0 0 0.00206,-0.01551 l 0.058394,-0.464568 a 0.50076235,0.50076235 0 0 0 0.00206,-0.01963 l 0.039274,-0.457338 a 0.50076235,0.50076235 0 0 0 0.00156,-0.0155 L 7.586236,45.3456 a 0.50076235,0.50076235 0 0 0 0,-0.01551 l 0.00982,-0.433564 a 0.50076235,0.50076235 0 0 0 0,-0.0217 l -0.00827,-0.419613 a 0.50076235,0.50076235 0 0 0 0,-0.02376 l -0.05271,-0.800468 a 0.50076235,0.50076235 0 0 0 -0.00362,-0.03152 L 7.435855,42.861523 a 0.50076235,0.50076235 0 0 0 -0.00414,-0.02945 L 7.303059,42.156154 a 0.50076235,0.50076235 0 0 0 -0.0062,-0.02739 L 7.144928,41.521566 a 0.50076235,0.50076235 0 0 0 -0.00827,-0.02326 L 6.9749126,40.960874 a 0.50076235,0.50076235 0 0 0 -0.0062,-0.02119 L 6.8048964,40.470977 a 0.50076235,0.50076235 0 0 0 -0.00775,-0.01963 L 6.6390143,40.054986 a 0.50076235,0.50076235 0 0 0 -0.00827,-0.01757 l -0.1441772,-0.32453 a 0.50076235,0.50076235 0 0 0 -0.00775,-0.01757 L 6.3651285,39.464841 a 0.50076235,0.50076235 0 0 0 -0.4940269,-0.2775 l -0.5074626,0.04496 a 0.50076235,0.50076235 0 0 0 -0.049092,0.0062 l -0.5115967,0.09767 a 0.50076235,0.50076235 0 0 0 -0.021704,0.0057 l -0.2129068,0.04909 -0.2067057,0.03876 -0.1953368,0.0155 -0.1953372,-0.01344 -0.1917194,-0.04082 -0.1855184,-0.0708 -0.1757,-0.101303 L 3.2521407,39.095866 2.9198612,38.779607 2.6191044,38.425624 2.343669,38.044769 2.0920048,37.644793 1.863595,37.222595 1.6563725,36.791097 1.468787,36.351849 1.3029057,35.906396 1.1602787,35.45888 1.0450403,35.005678 0.9980147,34.783467 0.9613244,34.560744 l -0.037207,-0.22066 -0.021704,-0.209288 0.005684,-0.195337 0.037207,-0.18552 0.0666626,-0.181383 0.083716,-0.170016 0.2191081,-0.355533 0.2382283,-0.330214 0.4997111,-0.630451 a 0.50076235,0.50076235 0 0 0 0.00982,-0.01394 l 0.2247925,-0.30489 a 0.50076235,0.50076235 0 0 0 0.01757,-0.02326 l 0.1989543,-0.30644 a 0.50076235,0.50076235 0 0 0 0.011886,-0.01963 l 0.1855183,-0.316259 a 0.50076235,0.50076235 0 0 0 0.013954,-0.02376 l 0.15968,-0.310576 a 0.50076235,0.50076235 0 0 0 0.054777,-0.212905 l 0.027388,-0.74776 a 0.50076235,0.50076235 0 0 0 0,-0.0021 l 0.00775,-0.242361 a 0.50076235,0.50076235 0 0 0 0,-0.02326 l -0.00362,-0.267685 -0.00982,-0.613399 a 0.50076235,0.50076235 0 0 0 0,-0.0036 l -0.00414,-0.170016 a 0.50076235,0.50076235 0 0 0 0,-0.0217 l -0.011359,-0.175739 a 0.50076235,0.50076235 0 0 0 0,-0.0016 l -0.025839,-0.36535 -0.023254,-0.387056 a 0.50076235,0.50076235 0 0 0 -0.00206,-0.02119 l -0.042892,-0.41393 a 0.50076235,0.50076235 0 0 0 0,-0.0098 l -0.107487,-0.892969 a 0.50076235,0.50076235 0 0 0 -0.00362,-0.01757 l -0.152592,-0.974611 a 0.50076235,0.50076235 0 0 0 -0.00207,-0.0093 L 2.3869341,24.134961 a 0.50076235,0.50076235 0 0 0 0,-0.0062 l -0.214974,-1.13068 -0.2108398,-1.207161 -0.096118,-0.626836 -0.075964,-0.654223 -0.039274,-0.324528 -0.021187,-0.331763 -0.044958,-0.687296 -0.011886,-0.705383 -0.00207,-0.3514 0.013952,-0.359668 0.031006,-0.73639 0.07028,-0.751891 0.037207,-0.376722 0.05271,-0.368969 0.1136882,-0.765845 0.1483113,-0.777214 0.1875855,-0.77773 L 2.552816,12.419913 2.8241172,11.648384 3.1445114,10.883056 3.5098637,10.12703 3.9201745,9.3849565 4.3749271,8.6620032 4.8767051,7.9592037 5.4198243,7.279142 6.0079021,6.6326696 6.6368042,6.0135862 7.3029134,5.423958 8.0000286,4.8653358 8.7302166,4.3397865 9.4862429,3.8478269 10.271725,3.3946244 11.082011,2.978629 l 0.83199,-0.3829222 0.849561,-0.3436483 0.86713,-0.306958 0.881084,-0.2692342 0.894518,-0.2284098 0.907955,-0.1937867 0.912089,-0.1503778 0.921907,-0.11110438 0.926042,-0.0682129 z"
       id="path12-3" />
    <path
       style="display:inline;opacity:0.99;mix-blend-mode:lighten;fill:#aa8800;fill-opacity:1;fill-rule:nonzero;stroke:none;stroke-width:0.264583;stroke-miterlimit:4;stroke-dasharray:none;stroke-opacity:1"
       d="m 19.999812,0.39739188 -0.95188,0.0263549 -0.948263,0.0707967 -0.943611,0.11317139 -0.93586,0.1550293 L 15.293122,0.95859784 14.376899,1.1942424 13.473595,1.4696778 12.585277,1.7828369 11.71453,2.1363038 10.862385,2.5269776 10.031945,2.9548585 9.2252764,3.4204631 8.4475459,3.9253421 7.6977209,4.4658774 6.9799352,5.0400026 6.2957394,5.6472007 5.6456499,6.2848878 5.0389685,6.9556478 4.4767289,7.6558636 3.9594479,8.3819176 3.4881588,9.1301921 3.0638952,9.8965537 2.6866574,10.676868 2.3579953,11.468034 2.075842,12.265918 l -0.2356446,0.800468 -0.1932698,0.799951 -0.1519287,0.798918 -0.1157552,0.777213 -0.054777,0.383956 -0.037207,0.388607 -0.072347,0.765845 -0.031006,0.750342 -0.014469,0.369486 0.0031,0.365869 0.010335,0.719336 0.044959,0.700733 0.024288,0.344165 0.038757,0.337447 0.079065,0.661975 0.096118,0.639754 0.2129069,1.217497 0.214974,1.134814 0.1901693,1.055233 0.1529622,0.974618 0.1069702,0.892452 0.041858,0.413412 0.024805,0.391708 0.024805,0.367418 0.011369,0.175184 0.00362,0.168981 0.00982,0.613916 0.00465,0.268718 -0.00723,0.242361 -0.027388,0.746726 -0.1617473,0.31006 -0.1834513,0.316775 -0.1999878,0.305924 -0.2242757,0.30489 -0.5074627,0.639239 -0.25579831,0.354499 -0.24081216,0.391192 -0.10697022,0.218075 -0.0868164,0.239779 -0.054777,0.263548 -0.008795,0.27337 0.028422,0.257347 0.0392741,0.234096 0.0397908,0.234093 0.0496094,0.243914 0.12247314,0.478007 0.15089521,0.47232 0.17414954,0.466641 0.1953369,0.46147 0.2175578,0.453202 0.2408122,0.444418 0.2697509,0.428914 0.2971395,0.411345 0.3312459,0.387056 0.3720703,0.355534 0.2139406,0.160713 0.2377117,0.133326 0.2552814,0.09922 0.2661338,0.05788 0.2676837,0.01654 0.2599325,-0.01963 0.2459799,-0.04548 0.2216918,-0.05374 0.5126302,-0.09715 0.5064291,-0.04393 0.1136881,0.230478 0.144694,0.323493 0.1576133,0.396359 0.1638141,0.467672 0.1632977,0.537951 0.1514118,0.607716 0.1286743,0.67541 0.096635,0.73949 0.05271,0.799435 0.00672,0.42013 -0.00775,0.433048 -0.02377,0.444934 -0.040307,0.455785 -0.057361,0.465606 -0.074931,0.473874 -0.094051,0.482139 -0.1136883,0.488342 -0.1338419,0.494027 -0.072347,0.249082 -0.081649,0.248562 -0.082682,0.251148 -0.042375,0.137459 -0.03669,0.149344 -0.043925,0.303858 -0.00878,0.302308 0.022738,0.301273 0.047542,0.296624 0.07028,0.291971 0.088367,0.286287 0.1043866,0.281638 0.1183389,0.27595 0.2733682,0.536403 0.3152265,0.517282 0.3477823,0.500226 0.3777547,0.483174 0.4056599,0.466122 0.4314984,0.449069 0.4547526,0.432531 0.4764566,0.414962 0.4950604,0.397909 0.51418,0.380339 0.531234,0.362251 0.548287,0.343649 0.564307,0.324011 0.578776,0.30334 0.592728,0.281636 0.606165,0.257865 0.618567,0.233061 0.629419,0.209291 0.638721,0.183967 0.647505,0.158131 0.654741,0.131257 0.660941,0.10232 0.665076,0.0739 0.66921,0.04547 0.674377,0.01704 0.665076,-0.01704 0.669726,-0.04547 0.665593,-0.0739 0.660941,-0.10232 0.654741,-0.131257 0.647506,-0.158131 0.638718,-0.183972 0.629419,-0.209291 0.619084,-0.233061 0.606165,-0.257866 0.592727,-0.281635 0.578776,-0.30334 0.56379,-0.324011 0.548285,-0.343133 0.531752,-0.362768 0.514181,-0.380338 0.495059,-0.39791 0.47594,-0.415478 0.454753,-0.432014 0.431498,-0.449069 0.40566,-0.466122 0.378272,-0.483174 0.347265,-0.500227 0.315228,-0.517281 0.273367,-0.536403 0.11834,-0.27595 0.104386,-0.281638 0.08888,-0.286288 0.06976,-0.29197 0.04806,-0.296624 0.02222,-0.301273 -0.0088,-0.302308 -0.04289,-0.300757 -0.03566,-0.147278 -0.04289,-0.138493 -0.08371,-0.254765 -0.0832,-0.252696 -0.07183,-0.248046 -0.133324,-0.491445 -0.113689,-0.488342 -0.09353,-0.481624 -0.07545,-0.47439 -0.05736,-0.465605 -0.03979,-0.455269 -0.02376,-0.444934 -0.0083,-0.433565 0.0067,-0.420129 0.05323,-0.799436 0.09612,-0.739489 0.129191,-0.67541 0.150894,-0.607716 0.163298,-0.537951 0.164331,-0.467672 0.157614,-0.395841 0.144177,-0.324011 0.114205,-0.230478 0.505912,0.04393 0.513147,0.09715 0.221175,0.05374 0.246497,0.04548 0.259932,0.02016 0.267684,-0.01704 0.266134,-0.05788 0.254764,-0.09922 0.237713,-0.133326 0.214455,-0.160713 0.37207,-0.355534 0.331248,-0.387056 0.297138,-0.411345 0.269234,-0.428914 0.240814,-0.443902 0.217556,-0.453718 0.195855,-0.46147 0.173633,-0.46664 0.15141,-0.471805 0.121957,-0.478523 0.05013,-0.243914 0.03927,-0.234093 0.03979,-0.233577 0.02842,-0.257865 -0.0088,-0.27337 -0.05478,-0.263549 -0.08682,-0.239779 -0.107487,-0.217559 -0.240813,-0.391189 -0.255799,-0.355018 -0.506944,-0.63872 -0.224277,-0.304893 -0.199988,-0.30644 -0.183451,-0.316259 -0.161748,-0.310576 -0.02739,-0.747757 -0.0078,-0.24288 0.0047,-0.268719 0.01035,-0.612881 0.0031,-0.168465 0.01188,-0.174667 0.02429,-0.367935 0.02479,-0.391192 0.04186,-0.413411 0.106971,-0.892452 0.152961,-0.975135 0.190169,-1.055232 0.214974,-1.134298 0.212908,-1.217497 0.09612,-0.640271 0.07906,-0.661975 0.03876,-0.337447 0.02429,-0.344165 0.04496,-0.700733 0.01085,-0.719335 0.0026,-0.36587 -0.01447,-0.369486 -0.03101,-0.750342 -0.07183,-0.761711 -0.03669,-0.386539 -0.05581,-0.387057 L 38.50419,14.661142 38.353296,13.869459 38.160544,13.068991 37.923864,12.266456 37.641713,11.468055 37.31305,10.677406 36.936329,9.8965749 36.511548,9.1302133 36.040259,8.3819388 35.52298,7.6558848 34.960741,6.955669 34.354059,6.284909 33.704486,5.6477386 33.020289,5.0400237 32.301988,4.4658985 31.55268,3.92588 30.774432,3.4204843 29.967762,2.9548798 29.137238,2.5269777 28.28561,2.1363039 27.414345,1.782837 26.526029,1.4696779 25.622725,1.1942425 24.706501,0.95859795 23.779943,0.76274426 22.843566,0.60771497 21.900471,0.49454357 20.951692,0.42426362 Z m -0.01344,0.49919435 h 0.02739 l 0.912089,0.0273885 0.925525,0.0682129 0.921907,0.11110437 0.912089,0.1503784 0.906405,0.1937866 0.896586,0.2304769 0.880566,0.2671672 0.867647,0.306958 0.849559,0.3436482 0.831993,0.3829223 0.808217,0.4159954 0.785482,0.4532024 0.757576,0.4919596 0.730705,0.5255493 0.697117,0.5586222 0.666109,0.5916951 0.628902,0.6170166 0.588078,0.6464723 0.542603,0.6800617 0.502293,0.7027995 0.454752,0.7229533 0.410313,0.742074 0.365353,0.756026 0.318325,0.765328 0.273368,0.771529 0.228409,0.777213 0.187587,0.777731 0.146243,0.769462 0.11524,0.773079 0.05271,0.373104 0.03721,0.375171 0.07028,0.747758 0.03152,0.736389 0.01344,0.359668 -0.0021,0.3514 -0.01138,0.705383 -0.04496,0.687297 -0.0217,0.331763 -0.03876,0.324527 -0.07855,0.654224 -0.09354,0.626835 -0.210839,1.207162 -0.214974,1.13068 a 0.50076235,0.50076235 0 0 0 0,0.0062 l -0.189137,1.054716 a 0.50076235,0.50076235 0 0 0 -0.0021,0.0093 l -0.152445,0.974618 a 0.50076235,0.50076235 0 0 0 -0.0041,0.01757 l -0.106968,0.892968 a 0.50076235,0.50076235 0 0 0 0,0.0098 l -0.04341,0.41393 a 0.50076235,0.50076235 0 0 0 -0.0016,0.02119 l -0.02376,0.389122 -0.02532,0.364834 a 0.50076235,0.50076235 0 0 0 0,0.0021 l -0.01188,0.173633 a 0.50076235,0.50076235 0 0 0 0,0.0217 l -0.0036,0.167947 a 0.50076235,0.50076235 0 0 0 0,0.0041 l -0.0098,0.612884 -0.0041,0.26975 a 0.50076235,0.50076235 0 0 0 0,0.02326 l 0.0083,0.242361 a 0.50076235,0.50076235 0 0 0 0,0.0021 l 0.02687,0.74776 a 0.50076235,0.50076235 0 0 0 0.05478,0.212905 l 0.160197,0.310576 a 0.50076235,0.50076235 0 0 0 0.01188,0.0217 l 0.183451,0.316262 a 0.50076235,0.50076235 0 0 0 0.01551,0.02326 l 0.201538,0.306956 a 0.50076235,0.50076235 0 0 0 0.0155,0.02119 l 0.224793,0.30489 a 0.50076235,0.50076235 0 0 0 0.0093,0.01394 l 0.49816,0.630452 0.240295,0.332279 0.218591,0.353468 0.08423,0.170016 0.06615,0.181382 0.03721,0.185521 0.0062,0.195336 -0.0217,0.209289 -0.03721,0.21859 -0.03876,0.224793 -0.04496,0.224277 -0.115236,0.451135 -0.142629,0.447517 -0.165881,0.445452 -0.187584,0.439248 -0.207224,0.431499 -0.22841,0.422198 -0.25218,0.399976 -0.275436,0.380854 -0.300757,0.353984 -0.331764,0.316259 -0.16433,0.122991 -0.179316,0.101285 -0.18397,0.0708 -0.191201,0.04082 -0.195337,0.01344 -0.195336,-0.0155 -0.208775,-0.03876 -0.209288,-0.04909 a 0.50076235,0.50076235 0 0 0 -0.02326,-0.0057 l -0.513665,-0.09767 a 0.50076235,0.50076235 0 0 0 -0.04909,-0.0062 l -0.505913,-0.04496 a 0.50076235,0.50076235 0 0 0 -0.494024,0.27957 l -0.113173,0.232542 a 0.50076235,0.50076235 0 0 0 -0.0078,0.01344 l -0.144695,0.322461 a 0.50076235,0.50076235 0 0 0 -0.0078,0.01963 l -0.158128,0.396359 a 0.50076235,0.50076235 0 0 0 -0.0078,0.01963 l -0.16433,0.468704 a 0.50076235,0.50076235 0 0 0 -0.0057,0.02119 l -0.162264,0.537435 a 0.50076235,0.50076235 0 0 0 -0.0078,0.02326 l -0.152445,0.607197 a 0.50076235,0.50076235 0 0 0 -0.0057,0.02739 l -0.128675,0.675928 a 0.50076235,0.50076235 0 0 0 -0.0041,0.02945 l -0.0956,0.737941 a 0.50076235,0.50076235 0 0 0 -0.0041,0.03152 l -0.05271,0.800468 a 0.50076235,0.50076235 0 0 0 0,0.02376 l -0.0078,0.419613 a 0.50076235,0.50076235 0 0 0 0,0.0217 l 0.0098,0.433565 a 0.50076235,0.50076235 0 0 0 0,0.01394 l 0.02326,0.444933 a 0.50076235,0.50076235 0 0 0 0.0021,0.01757 l 0.03928,0.455271 a 0.50076235,0.50076235 0 0 0 0.0021,0.01963 l 0.05839,0.464569 a 0.50076235,0.50076235 0 0 0 0.0021,0.0155 l 0.0739,0.474906 a 0.50076235,0.50076235 0 0 0 0.0021,0.01757 l 0.09405,0.482139 a 0.50076235,0.50076235 0 0 0 0.0036,0.01757 l 0.113173,0.488342 a 0.50076235,0.50076235 0 0 0 0.0062,0.01757 l 0.132807,0.490408 a 0.50076235,0.50076235 0 0 0 0.0016,0.0098 l 0.07235,0.248047 a 0.50076235,0.50076235 0 0 0 0.0062,0.01757 l 0.08372,0.253731 0.08217,0.248046 0.03721,0.119372 0.02532,0.109038 0.03514,0.248047 0.0057,0.248047 -0.01757,0.254248 -0.04289,0.257866 -0.06046,0.257865 -0.0801,0.25735 -0.09405,0.257866 -0.106971,0.248047 -0.257866,0.505912 -0.29714,0.486275 -0.330211,0.476972 -0.363286,0.462505 -0.38654,0.447516 -0.415994,0.431499 -0.4377,0.415996 -0.462505,0.400492 -0.478523,0.386541 -0.49816,0.369485 -0.515731,0.349335 -0.533302,0.333827 -0.546735,0.314711 -0.562239,0.296622 -0.572575,0.271817 -0.586011,0.250116 -0.601514,0.224274 -0.609265,0.203089 -0.621151,0.177768 -0.626835,0.154512 -0.633036,0.127124 -0.640271,0.09922 -0.644922,0.07235 -0.646472,0.04289 -0.642338,0.01757 -0.650607,-0.01757 -0.648022,-0.04289 -0.642855,-0.07235 -0.640788,-0.09922 L 16.789277,58.744259 16.160375,58.589747 15.541291,58.411979 14.931509,58.20889 14.329995,57.984616 13.744502,57.7345 13.171927,57.462683 12.60762,57.166061 12.060883,56.85135 11.52965,56.517523 11.013919,56.168188 10.515758,55.798703 10.037235,55.412162 9.5742139,55.01167 9.1370312,54.595674 8.7210361,54.164175 8.3319124,53.716659 7.9727611,53.254154 7.6409985,52.777182 7.343859,52.290907 7.0859937,51.784995 l -0.107487,-0.248047 -0.093534,-0.257866 -0.082165,-0.25735 -0.060462,-0.257865 -0.040824,-0.257866 -0.019637,-0.254248 0.00775,-0.248047 0.03514,-0.249595 0.027388,-0.111622 0.037207,-0.118856 0.081649,-0.246497 0.082166,-0.249597 a 0.50076235,0.50076235 0 0 0 0.00414,-0.01603 l 0.072347,-0.248047 a 0.50076235,0.50076235 0 0 0 0.00156,-0.0093 l 0.1348732,-0.494534 a 0.50076235,0.50076235 0 0 0 0.00568,-0.01757 L 7.285473,47.753716 a 0.50076235,0.50076235 0 0 0 0.00362,-0.01757 l 0.094051,-0.48214 a 0.50076235,0.50076235 0 0 0 0.00156,-0.01757 L 7.459118,46.76153 a 0.50076235,0.50076235 0 0 0 0.00206,-0.01551 l 0.058394,-0.464568 a 0.50076235,0.50076235 0 0 0 0.00206,-0.01963 l 0.039274,-0.457338 a 0.50076235,0.50076235 0 0 0 0.00156,-0.0155 L 7.586236,45.3456 a 0.50076235,0.50076235 0 0 0 0,-0.01551 l 0.00982,-0.433564 a 0.50076235,0.50076235 0 0 0 0,-0.0217 l -0.00827,-0.419613 a 0.50076235,0.50076235 0 0 0 0,-0.02376 l -0.05271,-0.800468 a 0.50076235,0.50076235 0 0 0 -0.00362,-0.03152 L 7.435855,42.861523 a 0.50076235,0.50076235 0 0 0 -0.00414,-0.02945 L 7.303059,42.156154 a 0.50076235,0.50076235 0 0 0 -0.0062,-0.02739 L 7.144928,41.521566 a 0.50076235,0.50076235 0 0 0 -0.00827,-0.02326 L 6.9749126,40.960874 a 0.50076235,0.50076235 0 0 0 -0.0062,-0.02119 L 6.8048964,40.470977 a 0.50076235,0.50076235 0 0 0 -0.00775,-0.01963 L 6.6390143,40.054986 a 0.50076235,0.50076235 0 0 0 -0.00827,-0.01757 l -0.1441772,-0.32453 a 0.50076235,0.50076235 0 0 0 -0.00775,-0.01757 L 6.3651285,39.464841 a 0.50076235,0.50076235 0 0 0 -0.4940269,-0.2775 l -0.5074626,0.04496 a 0.50076235,0.50076235 0 0 0 -0.049092,0.0062 l -0.5115967,0.09767 a 0.50076235,0.50076235 0 0 0 -0.021704,0.0057 l -0.2129068,0.04909 -0.2067057,0.03876 -0.1953368,0.0155 -0.1953372,-0.01344 -0.1917194,-0.04082 -0.1855184,-0.0708 -0.1757,-0.101303 L 3.2521407,39.095866 2.9198612,38.779607 2.6191044,38.425624 2.343669,38.044769 2.0920048,37.644793 1.863595,37.222595 1.6563725,36.791097 1.468787,36.351849 1.3029057,35.906396 1.1602787,35.45888 1.0450403,35.005678 0.9980147,34.783467 0.9613244,34.560744 l -0.037207,-0.22066 -0.021704,-0.209288 0.005684,-0.195337 0.037207,-0.18552 0.0666626,-0.181383 0.083716,-0.170016 0.2191081,-0.355533 0.2382283,-0.330214 0.4997111,-0.630451 a 0.50076235,0.50076235 0 0 0 0.00982,-0.01394 l 0.2247925,-0.30489 a 0.50076235,0.50076235 0 0 0 0.01757,-0.02326 l 0.1989543,-0.30644 a 0.50076235,0.50076235 0 0 0 0.011886,-0.01963 l 0.1855183,-0.316259 a 0.50076235,0.50076235 0 0 0 0.013954,-0.02376 l 0.15968,-0.310576 a 0.50076235,0.50076235 0 0 0 0.054777,-0.212905 l 0.027388,-0.74776 a 0.50076235,0.50076235 0 0 0 0,-0.0021 l 0.00775,-0.242361 a 0.50076235,0.50076235 0 0 0 0,-0.02326 l -0.00362,-0.267685 -0.00982,-0.613399 a 0.50076235,0.50076235 0 0 0 0,-0.0036 l -0.00414,-0.170016 a 0.50076235,0.50076235 0 0 0 0,-0.0217 l -0.011359,-0.175739 a 0.50076235,0.50076235 0 0 0 0,-0.0016 l -0.025839,-0.36535 -0.023254,-0.387056 a 0.50076235,0.50076235 0 0 0 -0.00206,-0.02119 l -0.042892,-0.41393 a 0.50076235,0.50076235 0 0 0 0,-0.0098 l -0.107487,-0.892969 a 0.50076235,0.50076235 0 0 0 -0.00362,-0.01757 l -0.152592,-0.974611 a 0.50076235,0.50076235 0 0 0 -0.00207,-0.0093 L 2.3869341,24.134961 a 0.50076235,0.50076235 0 0 0 0,-0.0062 l -0.214974,-1.13068 -0.2108398,-1.207161 -0.096118,-0.626836 -0.075964,-0.654223 -0.039274,-0.324528 -0.021187,-0.331763 -0.044958,-0.687296 -0.011886,-0.705383 -0.00207,-0.3514 0.013952,-0.359668 0.031006,-0.73639 0.07028,-0.751891 0.037207,-0.376722 0.05271,-0.368969 0.1136882,-0.765845 0.1483113,-0.777214 0.1875855,-0.77773 L 2.552816,12.419913 2.8241172,11.648384 3.1445114,10.883056 3.5098637,10.12703 3.9201745,9.3849565 4.3749271,8.6620032 4.8767051,7.9592037 5.4198243,7.279142 6.0079021,6.6326696 6.6368042,6.0135862 7.3029134,5.423958 8.0000286,4.8653358 8.7302166,4.3397865 9.4862429,3.8478269 10.271725,3.3946244 11.082011,2.978629 l 0.83199,-0.3829222 0.849561,-0.3436483 0.86713,-0.306958 0.881084,-0.2692342 0.894518,-0.2284098 0.907955,-0.1937867 0.912089,-0.1503778 0.921907,-0.11110438 0.926042,-0.0682129 z"
       id="path12-3-7-7" />
    <rect
       style="display:inline;mix-blend-mode:normal;fill:none;stroke:#dc0000;stroke-width:0.0997921;stroke-dasharray:none;stroke-opacity:1"
       id="rect1-80"
       width="39.900208"
       height="59.900208"
       x="0.04989624"
       y="0.04989624" />
  </g>
</svg>
